<svg width="51" height="51" viewBox="0 0 51 51" fill="none" xmlns="http://www.w3.org/2000/svg">
<path d="M25.7832 6.96093C24.9043 6.19921 23.8496 5.78905 22.6875 5.82812C21.8574 5.85741 20.793 6.05273 20.3438 6.82421C20.2656 7.97655 20.3828 9.35351 20.5391 10.5449C20.7637 12.2246 21.1055 13.9336 21.8086 15.4863C22.2969 16.5508 23.1563 17.8984 24.3965 17.8594C26.6621 17.7812 27.375 15.418 27.5606 13.5332C27.7852 11.248 27.6484 8.58202 25.7832 6.96093ZM45.2363 39.8223C45.0215 37.1953 42.6777 35.1836 40.6367 33.8164C39.4844 33.0352 38.2442 32.3418 36.9844 31.7559C36.0957 31.3457 35.168 31.0332 34.3379 30.5742C34.0156 31.1797 33.625 31.7461 33.1563 32.2344C32.2969 33.1328 31.1836 33.9531 29.8945 34.0508C28.7227 34.1387 27.6484 33.6797 26.877 32.8105C26.4766 32.3613 26.1641 31.8535 25.9199 31.3164C25.7246 32.166 25.4024 32.9766 24.8848 33.748C24.1328 34.8711 23.1953 35.9258 21.9551 36.5019C19.3281 37.7227 16.9063 35.8086 15.5879 33.6211C15.4707 33.4258 15.3535 33.2207 15.2266 33.0254C15.1582 33.0351 15.0899 33.0351 15.002 33.0254C14.3965 32.9277 13.5371 33.6113 13.0488 33.9238C12.4824 34.2852 11.9258 34.6562 11.3887 35.0664C10.2852 35.916 9.20118 36.9121 8.52735 38.1523C7.27735 40.4473 7.58986 43.3379 9.41603 45.2519C11.4473 47.3906 14.377 47.7129 17.1602 47.166C19.1231 46.7851 21.0371 46.0332 22.8145 45.0566C22.6777 44.5879 23.3125 44.041 23.8301 44.4316C23.8399 44.4414 23.8496 44.4414 23.8594 44.4512C24.5137 44.0508 25.1387 43.6211 25.7442 43.1719C28.459 41.1601 30.8906 38.8164 33.5469 36.7363C34.0938 36.3066 34.6895 37.0488 34.3867 37.5664C34.9629 38.5137 35.6856 39.4316 36.584 40.0859C37.4043 40.6816 38.6641 41.1113 39.4844 40.2422C40.1484 39.5293 39.582 38.582 39.0645 37.957C38.3809 37.1465 37.4727 36.5508 36.4961 36.1602C33.6738 35.0469 31.1641 36.4629 28.6543 37.6641C26.3203 38.7871 23.791 39.9687 21.1543 39.998C21.125 40.0762 21.0859 40.1641 21.0469 40.2422C20.1192 42 17.5215 42.4687 15.7637 42.7812C14.7969 42.9473 13.7324 43.1523 12.7559 42.9473C11.8965 42.7617 10.9004 42.1953 10.8906 41.1797C10.8809 40.0566 11.7402 39.1582 12.6289 38.582C13.8496 37.8008 15.1387 37.7812 16.5156 37.7812C16.5352 37.5176 16.7109 37.2832 17.0527 37.2832C17.2871 37.2832 17.5117 37.2832 17.7461 37.293C18.6543 37.3223 19.6992 37.3516 20.5 37.8594C20.8711 38.0937 21.1055 38.416 21.2129 38.7773C21.877 38.7578 22.541 38.6699 23.1856 38.5039C24.6504 38.123 26.0567 37.5469 27.4336 36.9023C28.7617 36.2871 30.0606 35.5156 31.4473 35.0371C34.1817 34.0996 37.2774 34.5 39.4258 36.5605C40.1777 37.2734 40.9785 38.2598 41.0274 39.3535C41.0762 40.5059 40.2754 41.4922 39.1621 41.8144C36.7305 42.5176 34.6211 40.2422 33.4492 38.3672C31.5059 39.9394 29.6602 41.6387 27.707 43.1914C26.8184 43.8945 25.9004 44.5586 24.9434 45.1738C28.5762 47.2832 33.2051 47.2637 37.2383 46.5117C39.1524 46.1504 41.1445 45.5644 42.7559 44.4219C44.2305 43.3769 45.3926 41.707 45.2363 39.8223Z" fill="#F2B71F"/>
<path d="M33.7519 20.6328C32.4922 18.6113 30.3144 17.5176 27.9609 17.4297C27.834 17.4199 27.7168 17.3809 27.6289 17.3223C26.6719 18.6406 24.9824 19.4512 23.3613 18.8945C22.668 18.6504 22.1016 18.1816 21.6523 17.5957C21.584 17.7813 21.418 17.918 21.1543 17.918C19.1133 17.957 17.0625 19.4219 15.6074 20.7402C14.9336 21.3555 14.1816 22.0293 13.8105 22.8789C13.3906 23.8457 13.3613 24.9199 13.5371 25.9453C13.918 28.1816 15.0312 30.2422 16.1641 32.1758C17.1113 33.7969 18.7324 36.3066 20.998 35.5547C22.2773 35.1348 23.3027 34.041 23.9668 32.8984C24.3281 32.2832 24.6601 31.6289 24.7773 30.9258C24.9141 30.1543 24.9434 29.3828 24.9336 28.6016C24.9336 27.7422 24.9043 26.8926 24.9531 26.0332C24.9531 25.9258 24.9629 25.8281 24.9629 25.7207C24.9434 25.3594 24.9141 25.0078 24.8848 24.6563C24.8652 24.5781 24.8457 24.4902 24.8164 24.4121C24.7871 24.3438 24.7187 24.0898 24.6309 24.0508C24.6406 24.0703 24.4746 24.1191 24.4551 24.1387C24.3086 24.2461 24.1816 24.3633 24.0547 24.5C23.8301 24.7441 23.7617 25.0859 23.7129 25.4082C23.5273 26.8145 24.0644 29.7246 22.1309 30.1543C20.0801 30.6035 19.0156 27.5762 18.5273 26.1309C18.2734 25.3887 19.4258 24.9785 19.6797 25.7305C19.7578 25.9648 19.8359 26.1992 19.9238 26.4238C20.2266 27.2051 20.6465 28.4355 21.4277 28.8652C22.1992 29.2754 22.3164 28.2891 22.3652 27.7324C22.4434 26.7852 22.3457 25.7988 22.5605 24.8711C22.7851 23.9238 23.5371 22.9277 24.5723 22.8301C25.0117 22.791 25.334 22.9863 25.5781 23.2891C26.6035 23.1621 27.4922 23.543 27.9609 24.5195C28.3418 25.3105 28.332 26.2871 28.791 27.0293C29.0059 27.3809 29.3184 27.5664 29.748 27.5273C30.1582 27.4785 30.3535 27.1465 30.4902 26.7852C30.8516 25.8379 30.7832 24.7734 31.1641 23.8359C31.457 23.1035 32.5508 23.6504 32.2578 24.3828C31.8769 25.3301 31.9941 26.541 31.5059 27.5176C30.9785 28.582 29.6504 29.168 28.5566 28.4941C27.6289 27.918 27.4043 26.9023 27.1504 25.9258C27.0527 25.5547 26.9551 25.0273 26.6719 24.7539C26.4961 24.5879 26.3008 24.5195 26.0859 24.5C26.0859 24.5293 26.0957 24.5586 26.0957 24.5781C26.125 24.7441 26.1445 24.9102 26.1641 25.0469C26.1738 25.2031 26.1836 25.3691 26.1836 25.5254C26.3008 27.0781 26.3301 28.709 26.8184 30.1934C27.1894 31.3164 27.8828 32.6152 29.1816 32.8008C30.4219 32.9766 31.5644 32.1855 32.3457 31.2871C33.2637 30.2227 33.8203 28.9238 34.1914 27.5762C34.8457 25.2715 35.0898 22.7813 33.7519 20.6328ZM19.1719 38.6602C18.6348 38.5527 18.0879 38.5332 17.541 38.5234C17.5215 38.7871 17.3457 39.0215 17.0039 39.0215C15.8418 39.0117 14.5137 38.8457 13.4883 39.5098C13.0684 39.7832 11.9062 40.5352 12.1406 41.1992C12.375 41.8828 13.5176 41.8535 14.084 41.8047C14.7871 41.7363 15.4805 41.6289 16.1641 41.4922C16.9844 41.3262 17.8242 41.1016 18.5957 40.7598C19.1035 40.5352 19.8359 40.1934 20.0215 39.6172C20.2266 38.9629 19.7773 38.7773 19.1719 38.6602Z" fill="#F2B71F"/>
<path d="M42.8437 33.9531C41.584 32.8985 40.1484 32.0293 38.7031 31.2481C37.541 30.6231 36.2617 30.2129 35.0996 29.6074C35.0508 29.5293 34.9726 29.461 34.875 29.4121C34.9824 29.1485 35.0703 28.8848 35.1582 28.6211C35.5683 27.3516 35.8906 26.0528 35.959 24.7149C36.0762 22.4102 35.2266 20.125 33.6055 18.4942C32.2285 17.1074 30.3437 16.4238 28.4297 16.2481C28.3711 16.2285 28.3027 16.2188 28.2344 16.209C28.7617 14.8906 28.8398 13.3672 28.8594 11.9805C28.8887 10.1738 28.4883 8.35744 27.375 6.8926C26.2812 5.44728 24.6406 4.65627 22.8535 4.60744C21.6621 4.57814 20.4414 4.91994 19.6699 5.75002C19.4355 5.76955 19.2207 5.91603 19.1816 6.22853C19.1719 6.32619 19.1621 6.42385 19.1523 6.5215C19.1035 6.63869 19.0547 6.76564 19.0058 6.8926C18.9375 7.10744 18.9961 7.28322 19.1035 7.40041C19.084 8.41603 19.1719 9.43166 19.2988 10.4278C19.5039 12.1856 19.8652 13.9727 20.5391 15.6133C20.6855 15.9746 20.8613 16.3457 21.0566 16.707C21.0566 16.707 21.0566 16.707 21.0469 16.707C18.6152 16.7461 16.291 18.4844 14.5625 20.0371C13.7129 20.7988 12.9316 21.668 12.5312 22.752C12.0918 23.9629 12.1308 25.2715 12.3848 26.5117C12.7656 28.3867 13.5859 30.1543 14.5234 31.834C14.1523 31.9024 13.8105 32.0684 13.459 32.2637C12.8535 32.586 12.2773 32.9473 11.7109 33.3281C10.6269 34.0606 9.59179 34.8809 8.70311 35.8477C6.87694 37.8203 6.09569 40.4278 6.80858 43.0547C7.49218 45.5352 9.52343 47.4492 11.9355 48.2305C14.8164 49.168 18.1465 48.3867 20.8613 47.293C21.8672 46.8828 22.8437 46.4043 23.7812 45.8672C27.5508 48.2891 32.2676 48.4942 36.6133 47.8399C40.2754 47.2832 44.8848 45.8281 46.1445 41.9024C47.1797 38.7188 45.207 35.9258 42.8437 33.9531ZM20.5391 10.5449C20.3828 9.34377 20.2656 7.96682 20.3437 6.82424C20.793 6.05275 21.8476 5.85744 22.6875 5.82814C23.8496 5.78908 24.9043 6.19924 25.7832 6.96096C27.6484 8.58205 27.7851 11.2481 27.5703 13.5332C27.3945 15.418 26.6719 17.7813 24.4062 17.8594C23.166 17.8985 22.2969 16.5508 21.8184 15.4863C21.1055 13.9434 20.7637 12.2246 20.5391 10.5449ZM13.5273 25.9649C13.3516 24.9395 13.3808 23.8653 13.8008 22.8985C14.1719 22.0488 14.9238 21.3653 15.5976 20.7598C17.0527 19.4414 19.1035 17.9766 21.1445 17.9375C21.4082 17.9375 21.5742 17.791 21.6426 17.6153C22.1016 18.1914 22.6582 18.6699 23.3516 18.9141C24.9726 19.4707 26.6523 18.6602 27.6191 17.3418C27.707 17.4004 27.8242 17.4395 27.9512 17.4492C30.3047 17.5469 32.4824 18.6309 33.7422 20.6524C35.0801 22.8008 34.8262 25.291 34.1914 27.6153C33.8203 28.9629 33.2637 30.2617 32.3457 31.3262C31.5742 32.2246 30.4219 33.0156 29.1816 32.8399C27.8828 32.6543 27.1894 31.3555 26.8183 30.2324C26.3203 28.7383 26.291 27.1172 26.1836 25.5645C26.1836 25.4082 26.1738 25.2422 26.1641 25.086C26.1543 24.9395 26.1348 24.7832 26.0957 24.6172C26.0957 24.5879 26.0859 24.5586 26.0859 24.5391C26.3008 24.5488 26.4961 24.6172 26.6719 24.793C26.9551 25.0664 27.0527 25.6035 27.1504 25.9649C27.4141 26.9512 27.6387 27.9668 28.5566 28.5332C29.6504 29.207 30.9785 28.6309 31.5058 27.5567C31.9941 26.5801 31.8769 25.3789 32.2578 24.4219C32.5508 23.6992 31.457 23.1524 31.1641 23.875C30.7832 24.8223 30.8516 25.877 30.4902 26.8242C30.3535 27.1856 30.1582 27.5176 29.748 27.5664C29.3183 27.6153 29.0059 27.4199 28.791 27.0684C28.332 26.3262 28.3418 25.3496 27.9609 24.5586C27.4824 23.582 26.6035 23.2012 25.5781 23.3281C25.334 23.0254 25.0117 22.8301 24.5723 22.8692C23.5371 22.9668 22.7851 23.9629 22.5605 24.9102C22.3359 25.8379 22.4433 26.8242 22.3652 27.7715C22.3164 28.3281 22.1992 29.3145 21.4277 28.9043C20.6367 28.4746 20.2168 27.2442 19.9238 26.4629C19.8359 26.2285 19.7578 26.0039 19.6797 25.7696C19.4258 25.0274 18.2832 25.4278 18.5273 26.1699C19.0156 27.625 20.0801 30.6524 22.1308 30.1934C24.0644 29.7637 23.5176 26.8535 23.7129 25.4473C23.7519 25.125 23.8203 24.7832 24.0547 24.5391C24.1816 24.4024 24.3086 24.2852 24.4551 24.1778C24.4746 24.1582 24.6504 24.1094 24.6309 24.0899C24.7285 24.1289 24.7969 24.3828 24.8164 24.4512C24.8457 24.5293 24.8652 24.6172 24.8848 24.6953C24.9141 25.0371 24.9433 25.3985 24.9629 25.7598C24.9629 25.8672 24.9531 25.9746 24.9531 26.0723C24.9141 26.9317 24.9336 27.7813 24.9336 28.6406C24.9336 29.4219 24.9043 30.1934 24.7773 30.9649C24.6504 31.6778 24.3281 32.3223 23.9668 32.9375C23.293 34.0801 22.2773 35.1641 20.998 35.5938C18.7324 36.3457 17.1113 33.8262 16.1641 32.2149C15.0312 30.2617 13.9082 28.1914 13.5273 25.9649ZM42.7656 44.4219C41.1641 45.5742 39.1719 46.1602 37.2578 46.5215C33.2246 47.2735 28.5957 47.293 24.9629 45.1836C25.9199 44.5781 26.8379 43.9043 27.7266 43.2012C29.6894 41.6485 31.5254 39.9492 33.4687 38.377C34.6406 40.252 36.75 42.5274 39.1816 41.8242C40.2851 41.502 41.0957 40.5254 41.0469 39.3633C40.998 38.2793 40.1875 37.293 39.4453 36.5703C37.2969 34.5098 34.2012 34.1192 31.4668 35.0469C30.0801 35.5254 28.7812 36.2969 27.4531 36.9121C26.0859 37.5567 24.6797 38.1328 23.2051 38.5137C22.5605 38.6797 21.8965 38.7676 21.2324 38.7871C21.125 38.4258 20.8808 38.0938 20.5195 37.8692C19.7187 37.3711 18.6836 37.332 17.7656 37.3028C17.5312 37.293 17.3066 37.293 17.0723 37.293C16.7305 37.293 16.5547 37.5274 16.5351 37.791C15.1582 37.7813 13.8691 37.8008 12.6484 38.5918C11.75 39.168 10.9004 40.0664 10.9101 41.1895C10.9199 42.1953 11.916 42.7715 12.7754 42.9571C13.7519 43.1719 14.8066 42.9668 15.7832 42.791C17.5508 42.4785 20.1484 42.0098 21.0664 40.252C21.1055 40.1738 21.1445 40.086 21.1738 40.0078C23.8105 39.9688 26.3398 38.7969 28.6738 37.6738C31.1836 36.4727 33.6933 35.0567 36.5156 36.1699C37.4922 36.5606 38.4101 37.1465 39.084 37.9668C39.6113 38.5918 40.1777 39.5391 39.5039 40.252C38.6836 41.1309 37.4238 40.6914 36.6035 40.0957C35.6953 39.4414 34.9824 38.5235 34.4062 37.5762C34.709 37.0684 34.1133 36.3262 33.5664 36.7461C30.9101 38.8262 28.4687 41.1699 25.7637 43.1817C25.1582 43.6309 24.5234 44.0606 23.8789 44.461C23.8691 44.4512 23.8594 44.4512 23.8496 44.4414C23.3418 44.0508 22.707 44.5977 22.834 45.0664C21.0566 46.043 19.1523 46.7949 17.1797 47.1758C14.3965 47.7227 11.4668 47.4004 9.43554 45.2617C7.60936 43.3477 7.29686 40.4571 8.54686 38.1621C9.22069 36.9219 10.3047 35.9258 11.4082 35.0762C11.9453 34.666 12.5019 34.2949 13.0683 33.9336C13.5566 33.6211 14.416 32.9375 15.0215 33.0352C15.0996 33.0449 15.1777 33.0449 15.2461 33.0352C15.3633 33.2403 15.4805 33.4356 15.6074 33.6309C16.9258 35.8086 19.3476 37.7324 21.9746 36.5117C23.2148 35.9356 24.1523 34.8809 24.9043 33.7578C25.4219 32.9863 25.7441 32.1758 25.9394 31.3262C26.1836 31.8633 26.4863 32.3711 26.8965 32.8203C27.6777 33.6895 28.7519 34.1485 29.9141 34.0606C31.2031 33.9629 32.3164 33.1524 33.1758 32.2442C33.6445 31.7461 34.0351 31.1797 34.3574 30.584C35.1875 31.0332 36.1055 31.3555 37.0039 31.7656C38.2734 32.3516 39.5039 33.0449 40.6562 33.8262C42.6973 35.1934 45.041 37.2149 45.2558 39.8321C45.3926 41.7071 44.2305 43.377 42.7656 44.4219ZM20.0117 39.627C19.8262 40.2031 19.0937 40.5449 18.5859 40.7695C17.8144 41.1113 16.9746 41.3262 16.1543 41.502C15.4707 41.6387 14.7676 41.7559 14.0742 41.8145C13.5078 41.8633 12.3652 41.8926 12.1308 41.209C11.9062 40.5449 13.0683 39.793 13.4785 39.5196C14.5137 38.8555 15.832 39.0215 16.9941 39.0313C17.3359 39.0313 17.5117 38.7969 17.5312 38.5332C18.0781 38.543 18.625 38.5625 19.1621 38.6699C19.7773 38.7774 20.2266 38.9629 20.0117 39.627Z" fill="black"/>
</svg>
